<svg width="100" height="100" viewBox="0 0 100 100" fill="none" xmlns="http://www.w3.org/2000/svg">
<path d="M27 14.2244C27 19.4094 24.2938 24.1462 20.9212 28.1781C15.9521 34.1185 12.9322 41.7177 12.9322 50C12.9322 58.2822 15.9522 65.8811 20.9212 71.8213C24.2939 75.8531 27 80.5898 27 85.7748V100H10.1695V83.4255C10.1695 77.9893 7.42677 72.8946 2.82089 69.7754L0 67.865V31.6804L2.82088 29.7701C7.42677 26.6508 10.1695 21.5562 10.1695 16.1199V0L27 0V14.2244Z" fill="black"/>
<path d="M73 14.2244C73 19.4094 75.7062 24.1462 79.0788 28.1781C84.048 34.1185 87.0678 41.7177 87.0678 50C87.0678 58.2822 84.0478 65.8811 79.0788 71.8213C75.7061 75.8531 73 80.5898 73 85.7748V100H89.8305V83.4255C89.8305 77.9893 92.5732 72.8946 97.1791 69.7754L100 67.865V31.6804L97.1791 29.7701C92.5732 26.6508 89.8305 21.5562 89.8305 16.1199V0L73 0V14.2244Z" fill="black"/>
</svg>
